<svg height="56" viewBox="0 0 56 56" width="56" xmlns="http://www.w3.org/2000/svg"><path d="m0 0h56v56h-56z" fill="none"/><path d="m39.0004 12.3907c.0202-.5961-.0222-1.1927-.1265-1.78-.1161-.5848-.3908-1.1264-.794-1.5655-.4034-.4303-.9214-.7363-1.493-.882-.5701-.1289-1.1544-.184-1.7386-.1638-.1101-.0003-.2212-.0004-.3333-.0004h-13.1633c-.2113 0-.4338.0008-.6242.0056-.3136.0044-.6266.0306-.9366.0785-.2941.0463-.5813.129-.855.2461-.3039.1317-.5842.3122-.83.5342-.4721.4318-.8028.996-.9489 1.6189-.1295.6274-.1821 1.2683-.1566 1.9084v35.2171c-.0202.5959.0222 1.1923.1264 1.7794.1162.5848.3908 1.1264.794 1.5657.4036.4301.9216.7361 1.4931.8819.5699.1303 1.1544.1855 1.7386.1642h13.5517c.5958.0226 1.1922-.0237 1.7773-.138.5877-.1302 1.1253-.4271 1.5484-.8552.4218-.4384.7115-.9869.8358-1.5824.1116-.5984.1568-1.2073.1347-1.8156v-34.7672c0-.1506 0-.3022 0-.4499zm-1 .3748v34.8621c.0199.5275-.017 1.0555-.11 1.5751-.083.4151-.2826.7979-.5753 1.1037-.2905.2931-.6602.4952-1.0638.5813-.5099.0948-1.0289.1321-1.5471.1113h-13.5474c-.4986.0197-.9976-.024-1.4852-.13-.3898-.0981-.7435-.3054-1.0194-.5977-.2802-.3073-.4699-.6862-.5479-1.0947-.0882-.518-.123-1.0437-.1039-1.5688v-35.2326c-.0233-.5531.0192-1.107.1266-1.65.0986-.4302.325-.8206.6494-1.12.1655-.1493.3542-.2706.5587-.3592.1986-.0843.4068-.1436.62-.1765.2641-.0405.5307-.0622.7978-.0652.1825-.0046.396-.0053.5988-.0053h2.2654c.0551-.0025.1103.0003.1648.0085.1115.014.2.1006.2165.2118.0094.0544.0137.1095.013.1647 0 .1241.0095.248.0284.3706.0209.1211.0626.2377.1232.3446.097.1694.237.3102.4058.4083.1316.0746.2768.1221.4271.1394.1515.015.3038.0198.4559.0145h5.0972c.1522.0053.3045.0005.456-.0145.1502-.0174.2955-.0648.427-.1394.1688-.0981.3088-.2389.4058-.4083.0606-.1069.1023-.2235.1232-.3446.0189-.1226.0284-.2465.0285-.3706-.0009-.0552.0034-.1103.0129-.1647.0095-.0537.0348-.1033.0727-.1424.0398-.0371.09-.0613.1438-.0694.0545-.0082.1097-.011.1648-.0085h2.1315l.3289.0006c.4986-.0196.9977.0241 1.4853.13.3898.0981.7435.3055 1.0194.5978.2802.3072.4698.6861.5477 1.0946.0882.5184.1231 1.0445.104 1.57v.3735z"/></svg>