<svg height="56" viewBox="0 0 38 56" width="38" xmlns="http://www.w3.org/2000/svg"><path d="m0 0h38v56h-38z" fill="none"/><path d="m16.6338 51.9713c-.0995.0072-.193.0165-.3037.0201-.2398.0079-.5475.0086-.9294.0086h-10.8013c-.382 0-.6896-.0007-.9294-.0086-.3806-.0126-.6885-.0454-.969-.1031-.3395-.0698-.6417-.1762-.9239-.3253-.2926-.1545-.557-.3531-.7859-.5905-.2291-.2374-.4207-.5115-.5696-.8148-.1436-.2924-.2463-.6057-.3138-.9578-.0558-.2914-.0873-.6105-.0995-1.0046-.0085-.2765-.0083-.6398-.0083-1.0996v-34.1915c-.0001-.4598-.0002-.8231.0082-1.0996.0123-.3947.0439-.7138.0995-1.0045.0675-.3521.1702-.6655.3138-.9579.1491-.3035.3407-.5776.5696-.8148.2291-.2374.4935-.4361.7859-.5905.2822-.149.5844-.2555.9239-.3254.2806-.0577.5885-.0905.969-.1031.259-.0084.5973-.0086 1.0224-.0086h.2043s10.1089 0 10.1089 0c-.0042.2527-.0056.5443-.0055.9133v.0767h-10.2638c-.0129 0-.0258 0-.0386 0-.4355 0-.7516.0001-.9953.0081-.3227.0106-.5775.0371-.8017.0833-.2466.0508-.4629.1264-.6611.2311-.1997.1054-.3799.2407-.5358.4024-.1575.1632-.2899.3529-.3936.564-.1042.2121-.1795.4436-.2302.7078-.0455.2378-.0717.5076-.0822.8488-.0082.2683-.0079.6215-.0078 1.0687v34.1918c-.0001.4473-.0004.8005.0078 1.0693.0104.3402.0366.6099.0823.8484.0506.2639.1259.4955.2301.7075.1035.2109.2359.4006.3935.564.1558.1616.3361.2969.5357.4024.1984.1048.4146.1804.6611.2311.2244.0462.4794.0727.8023.0834.2311.0076.5281.0081.8967.0081h10.8013c.1384 0 .257-.0004.3755-.0009.1514.2348.3167.4592.5107.6584.1077.1105.228.2063.3469.3038zm-4.4697-42.4712h-4.3472c-.5256.0054-.9473.4352-.9418.9598.0054.5169.424.9346.9418.94h4.3463c.5257.0055.9562-.4153.9617-.94s-.4162-.9544-.9418-.9598c-.0063-.0001-.0127-.0001-.019 0zm8.4446-4.5001h.1794s.169.0001.169.0001h12.2991.0355c.3983 0 .7164.0001.9612.008.3273.0108.5857.0374.8134.0839.2505.0511.4701.1271.6715.2325.202.1056.3845.2414.5427.4037.1586.1627.2922.3523.3966.5624.1051.2121.181.4432.232.7061.046.2378.0723.5071.0829.8474.0083.2694.0081.624.0079 1.0734v38.1654c.0002.4489.0004.8036-.0079 1.0729-.0106.3405-.0369.6098-.0828.8471-.0511.2635-.127.4944-.2316.7054-.1048.211-.2385.4006-.3974.5638-.1579.1621-.3403.2978-.5428.4036-.2011.1053-.4206.1812-.6711.2323-.2275.0464-.486.073-.813.0837-.2309.0075-.5264.0082-.8927.0082h-.0725s-.078 0-.078 0h-12.4983s-.0725 0-.0725 0c-.3663 0-.6618-.0006-.8922-.0081-.3274-.0108-.5859-.0374-.8135-.0838-.2505-.0511-.4699-.127-.6715-.2326-.2021-.1056-.3845-.2413-.5423-.4033-.1591-.1635-.2928-.3529-.3973-.5637-.1049-.2114-.1807-.442-.2316-.7051-.046-.2379-.0724-.5073-.0829-.8478-.0084-.2685-.0081-.6215-.0079-1.0685v-.1764s0-37.8216 0-37.8216v-.1763c-.0002-.4469-.0005-.8.0079-1.0686.0106-.3405.0369-.6098.0829-.8475.0509-.2632.1268-.494.2317-.7054.1046-.2108.2383-.4004.3972-.5635.1578-.162.3403-.2977.5427-.4036.2012-.1053.4208-.1813.6712-.2324.2277-.0464.4862-.0731.8129-.0839.2243-.0073.5098-.0081.8622-.0081m-.0001-.9997c-.3656 0-.6618.0011-.8945.0086-.3849.0127-.6964.0456-.9804.1035-.3436.0701-.6494.1768-.935.3262-.2961.1548-.5637.3539-.7955.5919-.2315.2377-.4255.5124-.5765.8165-.1456.2933-.2495.6074-.3177.96-.0564.2915-.0884.6114-.1006 1.0065-.0086.2764-.0085.6398-.0084 1.0999v.1762s0 37.8214 0 37.8214v.1762c-.0002.4601-.0002.8235.0084 1.0999.0123.395.0443.7148.1006 1.0065.0682.3526.1721.6667.3177.96.1508.3039.3448.5786.5765.8166.2319.2381.4995.4372.7954.5919.2856.1495.5915.2562.935.3262.2839.0579.5955.0907.9804.1034.2392.0078.5454.0087.9251.0087h.1505 12.4203.1505c.3796 0 .6859-.0009.9252-.0087.3849-.0127.6964-.0455.9803-.1034.3435-.07.6494-.1767.9351-.3262.296-.1547.5635-.3538.7954-.5919.2316-.2378.4255-.5125.5766-.8166.1454-.2933.2493-.6073.3177-.96.0565-.2918.0884-.6116.1006-1.0065.0086-.2773.0086-.6423.0084-1.1043v-38.165c.0002-.4621.0002-.8271-.0084-1.1043-.0122-.3949-.0442-.7147-.1006-1.0065-.0684-.3527-.1724-.6667-.3177-.9601-.1512-.3042-.3451-.579-.5766-.8165-.2318-.2379-.4993-.4371-.7954-.5919-.2856-.1494-.5915-.2561-.9351-.3262-.2839-.0579-.5953-.0908-.9803-.1035-.2609-.0084-.6013-.0085-1.0296-.0085h-.2133s-12.0858 0-12.0858 0h-.1686c-.0617 0-.1216-.0001-.1798-.0001zm8.5654 1.5h-4.3469c-.5256-.0003-.9519.4248-.9522.9495s.4256.9502.9512.9505h4.3471c.5256 0 .9517-.4253.9517-.95s-.4261-.95-.9517-.95z"/></svg>