<svg xmlns="http://www.w3.org/2000/svg" width="38" height="56"><path fill="none" d="M0 0H38V56H0z"/><path d="M14.296 39.596c.074-.063.148-.142.222-.214V50.01c0 .94-.68 1.962-1.812 1.962-.214 0-.155.011-.38.018-.774.02-1.125.003-1.576.003-.955 0-1.732-1.008-1.732-1.978v-7.294c.047-.015.094-.02.141-.034 2.495-.8 4.063-2.16 5-2.972l.138-.119zm.222-9.121c.89 1.155 1.458 2.294 1.3 4.123-.151 1.75-1.314 3.497-2.175 4.241-.915.79-2.37 2.12-4.789 2.895a6.877 6.877 0 0 1-2.102.344c-2.15 0-3.495-1.14-3.852-1.541-1.04-1.166-1.803-3.663-1.894-5.158-.16-2.656 3.036-4.963 4.465-5.904a8.782 8.782 0 0 1 4.784-1.41c.778.016 2.527.156 4.263 2.41zM4.019 36.762c-.615-1.83-1.335-2.532-1.632-1.964-.395.757.083 4 1.476 4.972.465.324.905-.782.156-3.008zm5.487-2.536l-.045-.062a.85.85 0 0 0-1.184-.184l-.86.544a.85.85 0 0 0-.184 1.185l.045.061a.85.85 0 0 0 1.185.184l.86-.543a.85.85 0 0 0 .183-1.185zm19.34 8.46c-2.494-.799-4.062-2.159-5-2.971l-.137-.12c-.073-.063-.147-.141-.221-.213V50.01c0 .94.68 1.962 1.812 1.962.214 0 .155.011.38.017.775.022 1.125.004 1.576.004.956 0 1.732-1.008 1.732-1.978v-7.294c-.048-.012-.092-.021-.142-.035zM37 35.378c.01 1.498-.854 3.993-1.893 5.159-.463.519-1.61 1.35-3.06 1.455-.162.012-.407.068-.823.068-.451 0-1.104-.066-2.072-.326-2.417-.775-3.874-2.106-4.788-2.895-.862-.744-2.024-2.491-2.175-4.241-.159-1.829.41-2.968 1.3-4.123 1.735-2.254 3.485-2.394 4.263-2.41.08-.002.163-.003.25-.003.986 0 2.444.143 4.33 1.287 1.598.969 3.677 3.079 3.892 3.394.776 1.138.775 2.386.776 2.636zm-6.41-.854l-.86-.544a.85.85 0 0 0-1.185.184l-.044.062a.85.85 0 0 0 .184 1.185l.859.543a.85.85 0 0 0 1.185-.184l.045-.061a.85.85 0 0 0-.184-1.185zm5.03.274c-.297-.568-1.017.135-1.632 1.964-.75 2.226-.309 3.332.156 3.008 1.393-.973 1.871-4.215 1.476-4.972z"/></svg>