<svg height="25" viewBox="0 0 21 25" width="21" xmlns="http://www.w3.org/2000/svg"><path d="m0 0h21v25h-21z" fill="none"/><path d="m4.5894 8.2274c-.0057-.0109-.0108-.0542-.0108-.0975 0-.2493.1244-.4987.2653-.6556.1843-.2117.4713-.3685.7314-.3743.0114.0325.0114.0593.0114.1027 0 .2441-.1141.4987-.2715.6778-.162.2111-.4279.3525-.6447.3525-.0434 0-.0651-.0057-.0811-.0057zm1.3494 1.4851c0-.6339.5037-.9157.5203-.9374-.3253-.4719-.8239-.4827-.9591-.4827-.3743 0-.6721.2168-.8729.2168-.1951 0-.4713-.206-.7964-.206-.6127 0-1.2307.5038-1.2307 1.4577 0 .5911.2225 1.2198.5203 1.626.2385.3417.4502.6287.7589.6287.3035 0 .4285-.2054.813-.2054s.461.2003.8079.2003c.3303 0 .5523-.3035.7531-.6179.2328-.336.3469-.6721.3469-.688-.0159-.0057-.6612-.2767-.6612-.9921zm15.0612-2.2125v10c0 1.3807-1.1193 2.5-2.5 2.5h-16c-1.3807 0-2.5-1.1193-2.5-2.5v-10c0-1.3807 1.1193-2.5 2.5-2.5h16c1.3807 0 2.5 1.1193 2.5 2.5zm-1 0c0-.8271-.6729-1.5-1.5-1.5h-16c-.8271 0-1.5.6729-1.5 1.5v10c0 .8271.6729 1.5 1.5 1.5h16c.8271 0 1.5-.6729 1.5-1.5z" fill="#1d1d1f"/></svg>