<svg height="56" viewBox="0 0 56.0054 56" width="56.0054" xmlns="http://www.w3.org/2000/svg"><path d="m0 0h56v56h-56z" fill="none"/><path d="m16.5409 50.6058c-.1896-.3757-.3242-.7736-.4113-1.2166-.068-.3458-.1063-.7165-.1205-1.1667-.009-.2841-.0092-.6623-.009-1.1351v-38.1791c-.0001-.473 0-.8466.009-1.1306.0142-.4505.0526-.8213.1206-1.167.0872-.443.2217-.8408.4113-1.2167.2006-.3973.459-.7568.7678-1.0686.117-.1181.2469-.2216.377-.3246-.1342-.0004-.2653-.0007-.4221-.0007h-.1603s-12.2068 0-12.2068 0h-.1603c-.4458 0-.7985-.0002-1.0663.0085-.3805.0126-.6884.0453-.969.1031-.3395.0699-.6417.1763-.924.3254-.2925.1544-.5568.353-.7859.5905-.2289.2372-.4205.5113-.5696.8148-.1437.2924-.2463.6058-.3138.9579-.0556.2906-.0873.6098-.0995 1.0045-.0084.2764-.0082.6397-.0082 1.0995v.1722s0 37.8472 0 37.8472v.1721c-.0001.4598-.0002.8231.0082 1.0995.0121.394.0437.7132.0995 1.0046.0676.3522.1702.6655.3138.9578.1489.3032.3405.5773.5696.8148.2289.2374.4933.436.7859.5905.2823.1491.5845.2555.924.3253.2805.0577.5884.0906.969.1031.2398.0079.5475.0086.9294.0086h12.8013c.1051 0 .1911-.0005.2851-.0007-.13-.1031-.2599-.2065-.377-.3247-.3092-.3122-.5676-.6718-.7679-1.0688zm-4.5409-36.6057c0 1.1028-.8972 2-2 2h-6c-1.1028 0-2-.8972-2-2v-6c0-1.1028.8972-2 2-2h6c1.1028 0 2 .8972 2 2zm-.75-.1945c0 .1381-.1119.25-.25.25s-.25-.1119-.25-.25.1119-.25.25-.25.25.1119.25.25zm-1.75-5.3818c.5523 0 1-.4478 1-1s-.4477-1-1-1-1 .4477-1 1 .4478 1 1 1zm0-1.5c.2757 0 .5.2243.5.5s-.2243.5-.5.5-.5-.2243-.5-.5.2243-.5.5-.5zm-3 1.6262c0 1.1046-.8954 2-2 2s-2-.8954-2-2 .8954-2 2-2 2 .8954 2 2zm0 4.9501c0 1.1046-.8954 2-2 2s-2-.8954-2-2 .8954-2 2-2 2 .8954 2 2zm5-2.5c0 1.1046-.8954 2-2 2s-2-.8954-2-2 .8954-2 2-2 2 .8954 2 2zm44.3735-.3893c-.116-.5848-.3907-1.1263-.7939-1.5655-.4035-.4302-.9214-.7363-1.493-.882-.5701-.1289-1.1544-.1835-1.7386-.1633-.1101-.0003-.2213 0-.3333 0h-11.5146c.0042.2516.0001.5397 0 .908v.0911h.6168c.0551-.0025.1103.0003.1648.0085.1115.014.2.1006.2165.2119.0094.0544.0137.1095.013.1647 0 .1241.0096.248.0284.3706.0209.1211.0626.2377.1232.3446.097.1694.237.3102.4058.4083.1315.0746.2768.1221.4271.1394.1515.015.3038.0198.4559.0145h5.0972c.1522.0053.3045.0005.456-.0145.1503-.0173.2955-.0648.427-.1394.1688-.098.3088-.2389.4058-.4083.0606-.1069.1022-.2235.1232-.3446.0189-.1226.0284-.2465.0285-.3706-.0009-.0552.0035-.1104.0129-.1647.0095-.0537.0348-.1033.0727-.1424.0399-.0371.09-.0613.1438-.0695.0545-.0082.1097-.011.1648-.0085h2.1315l.3289.0006c.4986-.0196.9977.0241 1.4853.13.3898.0981.7435.3055 1.0194.5978.2802.3073.4698.6862.5477 1.0946.0882.5184.123 1.0445.104 1.57-.0001.0723-.0001.3057-.0001.3735v34.8621c.0198.5275-.017 1.0555-.11 1.5751-.083.415-.2826.7979-.5753 1.1037-.2905.2931-.6602.4951-1.0638.5813-.5099.0948-1.0289.133-1.5471.1122h-12.483c-.1566.2415-.3279.4711-.5296.6747-.1169.1181-.2468.2214-.3766.3244h13.3892c.5958.0226 1.1921-.0237 1.7773-.138.5877-.1301 1.1253-.4271 1.5484-.8552.4218-.4384.7115-.9869.8358-1.5824.1116-.5984.1567-1.2073.1347-1.8156v-35.2171c.0202-.5961-.0222-1.1927-.1265-1.78zm-16.9843 38.5855c.0574-.2915.0898-.611.1022-1.0054.0087-.277.0087-.6416.0085-1.1032v-38.1797c.0002-.4616.0002-.8217-.0085-1.0987-.0124-.3945-.0449-.7139-.1022-1.0054-.0695-.3523-.175-.666-.3228-.959-.1536-.3039-.3506-.5784-.5858-.8157-.2355-.2377-.5073-.4367-.808-.5913-.2902-.1493-.6009-.2559-.95-.3258-.2884-.0579-.6047-.0908-.9958-.1034-.2686-.0085-.6202-.0086-1.0637-.0086h-12.2988c-.0604 0-.1193 0-.1764 0-.3743 0-.6772.0011-.9149.0087-.391.0127-.7075.0455-.996.1034-.3491.0699-.6597.1766-.9498.3258-.3008.1547-.5726.3536-.8081.5912-.2352.2375-.4323.5119-.5857.8157-.1478.2931-.2534.6068-.3228.959-.0573.2913-.0898.6107-.1022 1.0054-.0088.2761-.0087.6391-.0085 1.0987v38.1797c-.0001.4596-.0002.8271.0085 1.1032.0125.3946.0449.7141.1022 1.0054.0693.3523.1749.666.3228.959.1532.3036.3503.5779.5857.8157.2355.2378.5074.4368.808.5913.2902.1494.6009.2559.9499.3258.2884.0578.6049.0906.996.1033.243.0078.5541.0087.9398.0087h12.574c.3857 0 .6968-.0009.9399-.0087.3911-.0126.7075-.0455.9958-.1033.349-.0699.6598-.1765.95-.3259.3006-.1545.5724-.3534.808-.5912.2353-.2375.4323-.5119.5858-.8157.1478-.293.2533-.6067.3228-.959zm-.8892-40.1123v38.0041c.0002.4482.0005.8024-.0079 1.0712-.0107.3391-.0374.6072-.0839.8435-.0516.2619-.1284.4916-.2343.7015-.1063.2104-.2421.3998-.4036.5629-.1613.1628-.348.2993-.5552.4058-.2065.1063-.4318.183-.6889.2345-.233.0467-.4972.0735-.8313.0843-.2348.0075-.5353.0082-.9078.0082h-12.574c-.3726 0-.6731-.0007-.9075-.0082-.3343-.0108-.5986-.0376-.8318-.0844-.2571-.0515-.4824-.1282-.6892-.2347-.2067-.1063-.3934-.2427-.5547-.4056-.1617-.1633-.2975-.3526-.4034-.5626-.1063-.2104-.1829-.4399-.2343-.7014-.0466-.2366-.0732-.5048-.0839-.8441-.0085-.2681-.0082-.6249-.0081-1.0713v-38.18c-.0001-.4462-.0005-.7987.0081-1.0668.0107-.3393.0374-.6074.0839-.8439.0515-.2617.1282-.4913.2342-.7014.1063-.2104.242-.3998.4035-.5627.1613-.1628.3479-.2993.5552-.4058.2066-.1063.4319-.183.6889-.2346.233-.0468.4973-.0735.8312-.0844.2295-.0073.5219-.0081.8831-.0081h.1764s.1713 0 .1713 0h12.1752c.4078 0 .7333.0001.9835.0081.3342.0109.5984.0377.8316.0844.2571.0516.4825.1282.6893.2347.2067.1063.3934.2428.5551.4059.1613.1627.297.3519.403.5616.1063.211.183.4408.2346.7021.0466.2366.0732.5047.0839.8437.0085.2689.0082.6187.008 1.0673v.1761zm-6.875-2.6366c0 .3931-.2397.7304-.5812.8745-.1139.048-.2391.0746-.3705.0746h-4.3471c-.5256-.0003-.9514-.4254-.9512-.9495.0001-.262.1068-.4991.2791-.6708.0631-.0629.1429-.1057.2217-.149.0287-.0157.0504-.0414.0807-.0542.0631-.0266.136-.0288.2052-.0413.0558-.0101.1068-.0333.1655-.0332h4.3461c.1314 0 .2566.0266.3705.0746.3416.144.5812.4813.5812.8744z"/></svg>